<svg xmlns="http://www.w3.org/2000/svg" xmlns:xlink="http://www.w3.org/1999/xlink" xmlns:inkscape="http://www.inkscape.org/namespaces/inkscape" version="1.1" width="595.32" height="841.92007" viewBox="0 0 595.32 841.92007">
<defs>
<clipPath id="clip_1">
<path transform="matrix(.75,0,0,.75,0,0)" d="M0 164.32V958.4H793.76V164.32Z" clip-rule="evenodd"/>
</clipPath>
</defs>
<g clip-path="url(#clip_1)">
<path transform="matrix(.75,0,0,.75,0,0)" d="M351.04 537.28C338.88 540.64 331.68 541.44 319.2 540.32 314.24 540.16 310.08 537.76 305.6 536.8 303.52 536.16 301.76 535.04 299.68 535.04 290.4 534.24 283.36 529.6 278.08 522.24 274.08 517.12 270.72 511.52 267.2 505.76 266.08 504.16 264.96 502.24 264.8 500.16 264.64 496.32 263.04 492.8 261.28 489.28 259.36 484.16 258.08 479.04 260.48 473.76 261.28 471.2 260.96 469.44 259.04 467.68 253.6 463.52 249.92 457.76 245.6 452.32 240.32 446.4 236.64 439.04 235.84 430.88 235.36 429.28 234.72 427.68 234.24 425.76 231.68 418.4 231.36 411.36 233.28 404 233.6 402.72 234.08 401.6 234.08 400.64 233.6 394.56 236 389.92 238.24 385.12 240.16 381.28 241.6 377.44 243.52 373.92 244.48 371.52 245.12 369.12 243.04 367.36 238.88 362.56 239.52 356.64 237.92 351.36 237.28 349.44 237.28 347.04 238.24 345.28 239.2 342.4 237.92 340 238.4 337.6 239.04 335.04 238.4 333.28 237.92 330.56 236.8 324.48 238.88 318.88 241.12 313.28 246.08 302.08 248.8 297.6 256.8 287.52 259.36 284 261.6 280.48 265.92 277.92 267.84 276.8 268.8 274.56 270.56 272.64 271.84 271.2 272.96 268.96 274.72 268.48 279.84 265.92 284.96 263.2 290.4 261.76 294.56 260.64 299.04 260.8 303.52 260.8 308.16 260.8 312.16 262.88 316.64 263.68 318.08 264.32 319.2 264.16 320.8 263.2 324.16 261.28 327.04 258.88 330.88 258.24 335.68 256.96 340.32 256.8 344.8 254.24 345.12 253.92 345.76 253.6 346.24 253.92 355.52 254.24 364.8 252.32 373.76 255.36 377.28 256.32 380.32 258.24 383.36 260.16 389.92 263.68 390.56 263.68 395.36 258.24 395.68 257.6 396.16 257.12 396.32 256.64 400.48 249.44 407.36 245.28 414.56 241.6 419.84 238.88 425.6 237.76 431.52 237.6 439.2 237.44 446.56 238.08 453.76 239.84 462.88 241.92 471.04 245.92 478.56 251.68 482.4 254.56 485.92 257.6 489.76 260.48 492.48 262.56 494.56 264.64 496.64 267.52 501.76 275.36 506.88 283.68 510.56 292.32 511.04 293.76 511.84 294.88 512 296.64 512.16 303.52 514.08 309.28 514.88 315.84 515.84 321.44 515.52 327.36 515.68 332.64 515.68 335.04 515.68 337.12 515.68 339.2 515.68 340.32 516.48 341.28 517.92 341.6 523.2 342.56 527.2 346.4 531.52 349.44 536.16 353.12 540.64 357.12 545.76 360.48 546.56 360.8 547.68 361.92 548.16 362.72 553.12 369.92 557.12 377.76 559.84 385.76 559.84 386.08 560.16 386.88 559.84 387.52 557.6 391.84 559.84 396.16 560 400.64 560.16 406.72 559.52 412.32 557.6 418.08 557.12 421.6 555.68 425.12 555.04 428.32 553.6 437.76 549.92 446.56 546.4 455.36 545.6 457.44 544.96 459.84 544.16 462.24 543.68 463.52 543.2 464.96 542.4 466.24 540.32 469.6 538.24 472.96 536 476.64 532.64 481.6 529.12 486.88 524 489.76 519.36 493.12 515.04 496.96 511.2 500.8 509.76 502.72 508 504 505.44 504.8 501.76 505.76 498.08 507.52 494.56 508.64 492.64 509.44 490.56 509.6 488.48 509.92 486.72 510.08 485.76 510.88 484.96 512.32 484.64 513.12 484.16 513.92 483.84 514.56 480 521.12 476.32 527.36 470.88 532.64 466.88 536.48 464.16 541.76 460 545.76 456.64 548.96 453.44 552.48 449.76 555.36 446.08 558.4 441.6 559.84 436.96 561.12 427.2 564 417.28 565.76 407.2 565.92 396 566.24 385.44 562.88 375.04 559.84 372.8 559.36 371.2 557.28 369.28 556 366.4 554.4 364.48 551.52 360.8 550.88 359.84 550.4 358.72 548.96 357.92 547.84 355.52 544.32 353.44 540.96 351.04 537.28ZM341.12 346.24C341.92 349.44 342.4 353.12 343.36 356.48 343.84 358.4 344.8 360.48 345.12 362.4 346.24 367.52 348.8 372.64 351.52 376.8 356.16 384.64 362.56 390.88 369.28 396.96 372.48 399.68 376.48 402.08 381.12 402.72 384.32 402.88 387.04 403.36 389.92 404 394.88 405.44 400 405.12 404.16 401.44 405.6 400.16 406.56 398.08 405.76 396.48 403.68 391.2 401.28 386.08 395.2 384.32 392.8 383.36 390.72 382.56 388.64 381.12 386.88 380.16 385.12 378.88 383.68 377.44 380.48 373.92 380.8 369.92 381.6 365.76 381.92 364.96 382.72 364 383.52 363.84 386.56 362.56 389.76 361.28 392.8 361.44 397.28 361.44 401.6 363.2 405.76 363.84 406.56 364 406.88 364.64 407.36 364.96 414.24 370.24 419.84 376.64 423.52 384.64 424.96 388.16 425.76 390.88 424.32 394.72 422.4 399.2 421.76 403.68 420 408.32 419.2 409.92 416.64 410.56 415.52 412.64 414.24 414.56 412.32 415.68 409.92 416.8 406.88 418.4 403.52 419.84 401.6 423.2 400 425.6 398.08 425.6 395.68 425.6 386.24 426.56 377.12 424.64 368.48 421.12 358.08 417.76 348.96 411.84 341.76 402.88 339.2 399.68 336.48 396.48 333.6 393.6 331.2 391.2 329.12 388.8 328.96 385.12 328.8 383.36 328 381.76 326.88 380.32 323.68 375.68 321.28 371.2 319.52 366.08 319.2 365.76 317.92 365.44 317.28 365.44 316.48 365.76 315.68 366.4 315.36 367.04 310.4 371.52 310.4 377.6 311.68 383.04 313.28 390.24 314.72 397.6 319.68 403.52 321.28 405.6 322.56 408.32 324.16 410.56 328.32 415.68 332.8 420.64 339.2 423.84 343.36 426.24 347.2 428.96 351.36 431.36 352.64 432 354.08 432.64 355.36 432.8 362.56 434.88 369.76 436.48 377.12 438.08 379.36 438.4 381.92 438.08 384.32 437.76 385.44 437.44 387.04 437.12 388.48 436.8 396.64 436.32 404 433.44 411.2 429.6 415.2 427.2 418.88 424.16 422.72 421.6 429.28 417.12 432.48 411.36 435.36 404.96 436 403.52 436.32 401.92 436.32 400.64 436.8 394.56 436 389.28 437.92 383.36 438.08 383.04 437.76 381.92 437.44 381.12 435.2 372.48 430.4 365.28 423.84 359.68 419.04 355.04 413.6 351.36 408.8 347.04 403.36 342.88 397.6 339.36 390.72 337.76 389.44 337.44 388.48 336.96 387.36 336.32 379.36 331.68 370.24 330.24 361.12 329.28 355.04 328.48 349.28 330.08 345.12 335.2 342.72 338.24 341.28 341.76 341.12 346.24ZM493.92 417.12C494.08 415.36 494.56 413.92 494.56 412 494.56 410.4 494.56 408.64 494.08 406.88 492.32 398.08 489.12 389.92 484.48 382.24 484 381.12 482.24 381.12 481.28 381.92 479.04 383.84 477.92 386.4 476.48 389.28 474.24 393.44 471.68 397.44 467.52 400 465.28 401.76 461.6 402.4 460.64 405.44 459.68 408 458.4 410.88 458.4 413.92 458.4 418.88 456.32 423.36 453.76 427.04 451.04 430.88 450.72 433.92 452.48 438.08 453.44 440.16 453.76 442.56 454.08 444.96 454.4 446.88 454.72 449.12 454.24 451.04 452.48 456.32 452.48 462.24 450.08 467.2 449.92 467.68 449.44 468.64 449.76 469.12 449.76 469.44 450.4 470.24 450.88 470.24 451.84 470.24 453.12 469.44 454.24 469.44 461.12 469.76 465.92 465.12 471.04 462.08 474.72 459.68 477.6 456.32 481.6 453.76 485.76 450.88 485.92 445.6 488.16 441.28 491.68 433.76 494.88 426.08 493.92 417.12ZM260.64 415.2C260.96 418.24 260.64 421.92 261.6 424.64 264 430.24 266.88 435.36 269.6 440.64 270.4 442.72 272 444.32 274.08 445.92 277.28 448.16 280.16 450.56 282.72 453.44 286.08 457.12 290.56 458.72 295.04 459.84 300.32 461.12 305.6 462.24 310.56 463.04 317.6 464 318.4 463.36 318.4 457.12 318.4 456.32 318.4 455.36 318.4 454.4 318.56 452.32 317.6 450.56 315.52 449.6 308.32 444.64 301.92 439.36 297.76 431.36 296.64 429.28 294.88 427.68 293.6 425.6 290.56 420.48 287.68 415.2 284.8 410.08 284.64 409.44 284.64 408.96 284.48 408.64 283.36 401.12 281.92 393.92 281.12 386.56 280.8 384 281.12 381.12 280.96 378.56 280.96 377.76 280.32 376.64 279.84 376.48 279.36 375.68 278.08 376.16 277.44 376.64 270.08 381.76 267.04 389.92 263.04 397.44 262.72 403.52 260.16 408.96 260.64 415.2ZM370.4 522.88C375.04 529.6 381.6 531.52 386.08 536.48 394.4 539.52 402.4 544 411.68 542.56 416.96 541.76 422.08 540.96 427.52 540.32 429.92 540.16 432.48 538.56 434.4 536.8 438.08 533.76 442.72 531.2 445.92 527.04 448.64 522.72 452.32 519.2 455.52 515.2 458.08 512 460.64 508.64 463.2 505.28 464.16 504 463.36 501.28 461.6 501.28 458.08 501.28 454.4 500.48 450.88 501.92 448.64 502.88 445.92 502.72 443.04 502.88 441.92 502.88 440.8 502.24 439.68 501.44 434.4 500.16 429.92 500.8 426.08 505.28 423.04 508.96 419.68 512.32 416 515.52 413.76 517.44 411.36 519.68 408.8 520.32 397.76 523.68 386.56 526.72 374.88 522.88 373.76 522.72 372.32 522.88 370.4 522.88ZM349.44 467.2C352.32 472.96 355.84 477.76 360.8 480.8 363.36 485.76 368.16 487.52 372.96 489.44 376.8 490.88 380.64 492 384.64 493.44 387.84 494.56 391.04 494.72 394.24 493.44 398.4 492 402.4 489.92 405.6 486.88 407.68 484.32 409.6 482.24 411.68 480 414.72 477.44 416.16 473.92 417.92 470.4 420 467.04 421.28 463.36 422.24 458.24 420 459.68 418.72 461.12 417.12 461.28 413.76 461.92 410.72 463.04 408 464.48 407.2 464.96 406.24 465.44 405.44 465.44 398.24 465.44 391.84 468.8 384.8 470.08 380.96 470.56 377.12 470.56 373.28 470.24 366.56 469.44 360 468.16 353.28 467.04 352.16 467.04 350.88 467.2 349.44 467.2ZM259.36 343.36C259.36 344.48 259.36 344.8 259.36 344.96 259.36 346.56 259.36 348.32 261.28 348.8 262.4 348.96 263.68 348.32 264.64 348 268.8 344.8 273.28 341.76 278.08 339.36 281.12 337.92 283.84 337.76 286.88 338.72 288 338.88 289.12 339.68 290.24 340 291.52 340.16 293.12 339.04 293.12 337.6 293.28 335.84 293.6 333.76 293.28 332.16 292.48 326.88 293.28 321.76 294.4 316.48 294.72 314.56 294.88 313.12 295.2 311.2 296.32 305.92 295.84 300.16 298.4 294.88 298.72 294.56 298.24 292.96 297.44 292 297.28 291.68 296 291.68 295.2 291.84 293.12 292.48 290.72 293.76 288.8 294.88 279.36 301.44 271.84 309.28 266.24 319.52 262.4 327.52 261.12 336 259.36 343.36ZM468.16 340C467.84 336.32 467.68 333.28 467.2 330.08 466.88 328.64 465.92 327.36 465.12 326.24 459.84 320.96 454.72 315.36 448.32 311.84 444.8 310.08 441.6 309.28 438.08 309.28 434.24 309.12 432.16 310.72 430.24 313.92 428.96 316.64 427.68 319.36 426.56 322.08 425.76 324.32 426.24 325.28 428 326.56 429.6 328 431.68 328.8 432.96 330.4 434.88 332.48 437.12 334.4 439.36 336.32 441.44 338.24 443.36 340.8 445.28 343.04 446.4 344.32 447.04 345.76 448.32 346.4 451.84 348.16 453.12 351.36 454.72 354.56 455.52 356 456 357.12 456.64 358.4 458.08 360.96 459.68 361.28 461.28 359.04 462.56 357.12 463.84 355.52 465.28 353.28 465.92 352.32 466.72 351.2 466.88 350.4 467.52 346.88 467.84 343.04 468.16 340ZM318.88 323.36C321.6 321.44 323.68 320.32 326.08 318.88 328.32 317.76 329.92 316.32 331.2 314.4 335.36 307.68 341.6 304.64 348.96 303.84 350.88 303.68 352.8 303.52 354.24 303.04 358.72 300.8 363.36 301.12 368 302.08 369.6 302.56 370.88 303.04 372.32 303.36 376.8 304 380.96 304.96 385.44 305.76 386.24 305.76 387.36 305.12 387.84 304.64 388.16 304 387.84 303.04 387.2 302.24 381.92 294.88 374.56 290.72 367.36 286.24 362.56 283.2 357.28 284.96 352.32 284 350.88 284 349.28 284 347.84 284 346.72 284.48 345.6 284.48 344.32 284.96 339.36 286.4 334.24 288.32 330.4 292 325.6 296.16 323.52 302.4 320.32 307.68 319.68 312.64 317.6 317.28 318.88 323.36ZM323.04 483.84C321.44 484.32 320.32 484.48 319.2 485.12 313.92 488 308.16 489.28 302.08 488.48 299.52 488.48 296.8 488.48 294.08 488.48 292.32 488.48 291.04 489.92 291.84 491.2 294.08 495.04 296.16 498.4 298.4 501.92 300.64 505.28 304 507.84 307.84 508.32 314.08 508.96 319.68 511.52 325.92 513.12 326.88 513.28 328.32 513.92 329.12 513.28 332.64 511.52 336.16 512.32 339.68 512 340.8 511.68 341.92 511.52 343.04 510.88 344.16 510.56 344.8 508.96 344 508.32 342.88 506.72 341.28 505.28 339.84 503.84 337.28 500.64 334.24 497.44 332.16 494.08 329.92 489.92 326.88 487.04 323.04 483.84ZM524.96 405.92C524.8 405.92 524.48 405.92 524.32 405.92 524.32 407.68 524.96 409.92 524.32 411.2 522.24 416 523.2 420.64 523.04 425.6 522.56 428.48 522.4 432 520.96 434.88 519.84 437.12 519.2 439.36 519.2 441.92 519.36 446.4 517.6 450.08 514.56 453.12 512.8 455.04 512.16 456.32 511.68 458.72 511.04 460.64 509.76 462.24 508.96 464 508.48 465.76 505.44 468.16 507.36 469.44 510.08 471.36 511.2 468.16 512.8 466.72 516 464.8 517.76 461.28 519.2 458.24 521.12 453.76 523.04 449.6 525.12 445.28 525.76 443.2 527.52 441.92 527.84 440 531.04 428.32 532.8 416.8 535.04 405.12 535.36 403.84 535.2 402.72 535.04 401.6 534.24 396 532 390.56 528.64 386.08 526.4 383.2 524 380.64 521.76 378.24 520.64 376.96 519.36 376.96 518.4 378.08 518.08 378.56 517.76 380 518.08 380.32 520.16 382.88 521.12 385.92 521.28 389.44 521.44 392 522.4 394.56 523.04 397.28 523.52 399.84 524.16 402.88 524.96 405.92ZM412.96 287.68C416.8 285.76 421.12 284.64 424.32 281.44 426.88 278.88 430.24 277.92 433.28 277.44 439.68 276.64 446.4 276 452.48 279.2 453.6 280.16 454.72 280.64 455.84 280.64 458.56 280.64 460.64 282.08 463.04 283.68 467.2 287.2 471.68 290.72 476.32 294.24 476.48 294.24 477.28 293.76 478.08 293.28 473.6 284.96 467.2 278.88 459.68 273.28 454.56 269.76 449.12 267.84 443.04 267.84 439.84 267.84 436.64 268.64 433.6 266.72 432.8 266.24 431.36 266.72 430.08 267.04 422.4 268.8 416.16 273.28 410.56 279.04 407.52 281.76 407.36 282.88 410.56 286.24 411.2 286.72 411.84 287.2 412.96 287.68Z" fill="#575ca9"/>
<path transform="matrix(.75,0,0,.75,97.44,499.56)" d="M0 0C0-23.2 18.24-41.44 41.28-41.44 50.88-41.44 60.32-37.92 68.16-31.84L64.16-25.6C57.44-31.04 49.6-33.92 41.28-33.92 22.72-33.92 7.84-18.88 7.84 0 7.84 18.88 22.72 33.92 41.28 33.92 50.08 33.92 58.08 30.88 64.16 25.12L68.32 31.36C61.12 37.6 51.36 41.44 41.28 41.44 18.24 41.44 0 23.2 0 0ZM149.28 40.16 141.44 22.08H102.56L94.72 40.16H86.24L121.44-41.44H122.56L157.92 40.16H149.28ZM105.76 14.56H138.24L121.92-23.2ZM257.28-41.44H258.4V40.16H250.56V-19.52L219.68 22.56H219.04L188.32-19.36V40.16H180.32V-41.44H181.28L219.36 9.76ZM322.56-57.76 302.72-48.96 300.64-52.96 319.52-63.52ZM336.96 32.64 337.6 40.16H288.8V-40.16H335.36L335.84-32.64H296.96V-10.08H324.16V-2.56H296.96V32.64H336.96 337.12ZM371.36 32.64H406.88L406.24 40.16H363.36V-40.16H371.36ZM430.56 40.16V-40.16H438.4V40.16ZM524 40.16 516.32 22.08H477.28L469.44 40.16H460.8L496.32-41.44H497.28L532.64 40.16H524ZM480.48 14.56H512.96L496.64-23.2Z" fill="#575ca9"/>
<path transform="matrix(.75,0,0,.75,0,0)" d="M245.76 807.2C246.88 807.84 246.08 808.64 245.44 809.12 236.8 816.8 230.08 824.8 219.68 830.56 215.68 832.8 210.88 835.84 206.72 832.32 202.4 828.32 205.28 823.2 207.04 818.72 208.32 815.68 210.08 812.96 211.04 809.92 211.84 807.52 211.36 806.24 208.32 807.36 201.12 810.24 195.52 815.2 190.24 820.48 189.12 821.92 187.84 823.52 186.56 824.96 185.76 825.92 185.12 827.52 183.68 826.72 182.72 825.92 183.2 824.32 183.68 823.04 186.72 816 189.44 808.8 192.48 801.6 198.08 788.8 204 776 212.48 764.64 215.68 760.48 219.36 756.48 224.32 754.24 230.56 751.52 235.52 754.56 235.36 761.6 235.2 768.8 231.2 774.56 226.72 779.68 219.68 788.32 211.36 795.68 201.28 800.96 194.88 804.16 191.68 809.12 190.24 815.36 190.24 816 190.24 816.48 191.04 816.16 195.04 812.96 198.72 809.44 203.2 807.04 205.28 805.92 207.2 804.48 209.76 804.32 213.76 804.16 215.36 805.92 214.08 809.92 212.96 812.8 211.36 815.68 210.08 818.4 209.12 820.48 208.32 822.4 207.68 824.32 207.04 826.4 206.56 828.64 208.16 830.4 209.92 832.16 212.16 831.52 214.24 830.72 222.4 827.84 231.36 819.68 243.68 808 244.16 807.52 244.96 806.56 245.76 807.2ZM201.92 788.16C200 792.16 197.28 795.68 197.28 800.32 211.04 793.76 221.92 784 229.92 771.04 231.36 768.8 232.16 766.08 232.96 763.52 233.6 761.28 233.6 758.72 231.52 756.96 229.28 755.2 226.72 755.68 224.32 756.96 221.28 758.88 218.56 761.28 216.32 764.16 210.56 771.52 205.76 779.68 201.92 788.16ZM294.88 807.2C296 808.32 294.72 809.12 294.08 809.6 287.04 816.48 281.12 822.72 272.96 827.84 271.36 828.64 269.92 829.6 268.32 830.24 265.44 831.36 262.4 831.52 259.84 829.44 257.12 827.36 257.28 824.16 257.92 821.28 258.4 819.04 259.2 816.96 259.84 814.88 254.08 817.6 250.88 823.2 245.6 826.72 243.84 827.84 242.08 829.12 240.16 829.92 237.92 831.04 235.68 831.52 233.6 829.76 231.68 827.84 231.52 825.6 232.16 823.2 234.08 814.08 244.96 805.12 254.4 804.8 256.32 804.8 258.24 805.44 259.84 806.4 260.64 807.04 261.28 808.32 262.4 807.52 263.84 806.88 265.12 804.32 266.56 807.04 267.68 808.64 266.08 810.08 265.44 811.52 263.84 814.88 261.76 817.92 260.96 821.6 260.48 823.84 259.68 825.92 261.92 827.84 264.32 829.44 266.4 828.64 268.64 827.52 273.28 825.44 277.28 822.24 281.12 818.72 284.96 815.04 288.32 812.16 292.16 808.48 292.8 807.68 293.76 806.4 294.88 807.2ZM257.12 812.96C258.24 812 259.36 810.88 258.72 809.12 257.76 807.04 255.68 808 254.4 807.68 246.72 807.68 238.24 814.24 235.36 822.24 234.56 824.32 233.44 826.4 235.68 828 237.6 829.76 239.36 828.16 240.8 827.36 247.04 823.52 252 818.08 257.12 812.96ZM318.4 830.72C316 828.16 317.12 824.8 317.92 821.6 318.72 818.08 320.32 814.88 320.96 811.36 321.76 807.52 319.84 806.24 316.16 807.52 310.56 809.6 305.6 813.12 301.44 817.28 297.6 821.12 294.08 824.8 290.56 828.48 289.6 829.44 288.64 831.36 286.88 830.24 285.76 829.6 286.08 827.84 286.24 826.72 287.52 819.36 291.2 813.28 294.08 806.56 294.4 805.92 295.2 805.6 295.68 805.92 296 806.56 296.16 807.52 296 808.32 294.4 812 292.64 815.68 291.04 819.36 290.56 820.96 289.76 822.72 289.28 824.16 289.12 824.8 288.96 826.72 290.56 825.12 296.8 819.04 302.24 812.16 310.24 807.84 313.6 806.08 317.12 802.24 321.12 805.28 325.44 808.48 323.04 813.12 321.92 817.12 321.12 820 320 822.72 319.52 825.76 318.88 828.96 320 830.56 323.84 828.96 329.92 826.24 334.88 821.92 340 817.92 344.64 814.24 348.16 811.36 352.48 807.68 353.12 807.2 354.4 806.08 355.2 807.2 355.52 807.68 354.4 808.32 353.76 808.96 346.08 815.68 339.36 821.6 330.88 827.52 329.76 828.32 328.32 829.12 327.04 829.6 324.16 830.88 321.28 833.76 318.4 830.72ZM376.8 832.48C370.4 832.64 368.64 831.04 368.16 824.32 368.16 823.04 368.8 820.96 367.36 820.32 366.08 819.68 364.8 821.12 363.52 822.08 359.04 825.44 354.72 828.8 349.28 830.4 344.64 831.84 340.48 828.16 341.44 823.52 343.36 814.24 354.08 803.36 364 804.32 363.84 804.32 364.64 804.48 365.12 804.32 368 803.52 370.72 807.52 372.8 804.96 374.72 802.88 375.2 799.84 376.32 797.28 382.24 785.12 387.52 772.48 396.48 761.76 397.76 760.32 399.2 758.56 400.96 757.44 405.28 754.24 409.28 756.16 410.08 761.44 410.88 766.72 409.12 771.52 406.72 776.16 399.2 789.92 388.16 800.48 376.8 811.04 373.6 814.24 371.52 817.28 370.88 821.92 369.76 828.64 373.6 832 380.16 829.76 384.96 828 389.28 824.96 392.8 821.28 397.76 816.64 400.96 812.96 405.92 808.16 406.4 807.52 407.68 806.72 407.84 806.88 409.12 808 407.68 808.8 407.2 809.44 401.12 816.96 395.84 822.4 388 828 384.8 830.56 381.12 832.32 376.8 832.48ZM383.52 801.6C393.28 791.84 402.88 781.92 407.2 768.16 408.16 765.12 409.12 761.44 406.08 759.36 402.4 757.12 400.96 761.28 399.04 763.2 390.88 772.32 386.08 783.68 380.8 794.56 374.72 807.52 372 813.92 383.52 801.6ZM345.12 826.88C347.36 829.44 350.4 827.84 352.64 826.56 358.08 823.52 363.04 819.84 367.68 815.84 369.92 814.08 371.68 812 370.56 809.28 369.28 806.72 366.4 806.56 363.84 806.56 357.28 806.56 350.08 811.84 345.76 819.2 344.64 821.6 343.04 824.64 345.12 826.88ZM410.88 831.84C403.36 833.92 398.24 829.92 398.24 822.24 398.24 812.96 408.32 803.36 416.96 804.32 419.84 804.8 421.28 806.08 420.96 809.12 420.8 812.32 418.56 813.76 415.68 814.24 415.2 814.24 414.88 813.92 414.56 813.76 414.72 813.44 414.72 812.96 415.04 812.8 415.84 812.16 416.8 811.84 417.76 811.04 418.88 810.24 419.04 809.12 418.56 807.68 417.92 806.56 416.8 806.72 415.84 806.56 409.12 806.4 399.84 816.48 400.48 823.2 400.96 828.32 405.12 831.04 410.72 829.6 419.84 827.04 426.88 821.28 433.92 815.68 437.76 812.48 440.48 810.24 444.8 807.52 445.6 807.2 446.4 806.4 447.36 807.36 447.52 807.52 446.56 808.8 446.08 809.12 438.4 815.04 431.84 820 424.16 825.76 420.16 828.64 415.68 830.56 410.88 831.84ZM454.72 832C449.6 832 448 830.24 447.84 825.44 447.68 820.8 449.76 817.12 452.16 813.76 454.24 810.72 454.24 809.12 450.24 808.64 449.12 808.48 448.16 807.84 447.2 807.52 446.4 807.36 445.44 807.2 444.8 806.72 442.24 805.6 441.28 803.52 441.76 801.12 442.88 795.68 445.6 791.52 450.4 789.28 452.64 788 455.2 788 457.12 789.76 458.72 791.36 459.68 793.28 458.56 795.52 457.6 798.08 456.64 800.8 454.56 802.56 451.84 804.64 450.72 806.08 454.72 807.68 457.12 808.8 456.96 811.04 455.68 813.12 453.92 815.84 452.16 818.56 450.88 821.6 449.92 823.84 449.28 826.72 451.2 828.64 453.12 830.72 456 829.92 458.56 828.96 463.68 826.88 467.68 823.84 471.84 820 475.84 816.8 480.8 812 485.28 808 485.92 807.52 486.56 806.08 487.84 807.2 488.48 808 487.52 808.8 487.2 809.28 478.88 816.8 471.68 824.8 461.76 830.08 459.36 831.36 456.96 832.32 454.72 832ZM447.04 804.96C450.88 805.28 457.76 796.16 456.16 792.64 455.36 790.72 453.92 790.56 452 791.04 449.12 792 444.32 798.4 444 801.44 444 803.68 445.76 804.16 447.04 804.96ZM536.16 807.2C537.6 808.32 536.16 809.12 535.36 809.6 528.48 816.48 522.4 822.72 514.24 827.84 512.64 828.64 511.36 829.6 509.76 830.24 506.72 831.36 503.84 831.52 501.28 829.44 498.56 827.36 498.72 824.16 499.36 821.28 499.84 819.04 500.64 816.96 501.28 814.88 495.68 817.6 492.32 823.2 487.04 826.72 485.28 827.84 483.52 829.12 481.6 829.92 479.36 831.04 477.12 831.52 475.04 829.76 473.12 827.84 472.96 825.6 473.44 823.2 475.36 814.08 486.4 805.12 495.84 804.8 497.76 804.8 499.68 805.44 501.28 806.4 502.08 807.04 502.72 808.32 503.84 807.52 505.12 806.88 506.4 804.32 508 807.04 509.12 808.64 507.52 810.08 506.72 811.52 505.12 814.88 503.2 817.92 502.4 821.6 501.92 823.84 501.12 825.92 503.52 827.84 505.76 829.44 507.84 828.64 509.92 827.52 514.56 825.44 518.72 822.24 522.4 818.72 526.4 815.04 529.92 812.16 533.76 808.48 534.24 807.68 535.2 806.4 536.16 807.2ZM498.56 812.96C499.68 812 500.8 810.88 500.16 809.12 499.2 807.04 497.12 808 495.84 807.68 488 807.68 479.68 814.24 476.64 822.24 476.16 824.32 474.88 826.4 477.12 828 479.04 829.76 480.8 828.16 482.24 827.36 488.48 823.52 493.44 818.08 498.56 812.96ZM543.68 801.6C536 807.2 534.56 816.48 531.2 824.8 530.08 827.52 532.32 826.24 533.44 825.6 548.64 817.28 563.36 810.08 573.92 807.04 574.56 806.88 575.68 806.72 575.84 807.84 576 808.48 575.36 808.8 574.72 809.12 572.96 809.6 571.04 810.08 569.12 810.56 563.36 812 541.28 824 539.2 825.12 535.68 827.04 531.84 828 530.24 830.4 527.52 833.76 532.32 837.28 533.12 841.12 534.24 846.08 533.12 850.56 531.84 854.88 528.48 866.72 522.72 877.6 515.04 887.52 514.88 887.84 514.72 888 514.56 888.16 513.44 889.6 512 891.2 509.76 889.92 507.84 888.96 508.64 887.04 509.12 885.44 511.84 870.08 516.48 855.36 521.76 840.8 522.24 839.52 522.56 838.4 523.2 837.28 524.64 834.08 524 832.8 520.48 833.76 519.2 833.44 516.96 834.72 516.48 832.8 516.16 830.56 518.56 829.6 519.84 829.76 526.56 830.24 527.36 825.44 529.44 820.8 539.52 797.92 548.96 775.04 563.52 754.56 567.36 749.6 571.2 744.8 576.32 741.12 579.2 739.2 582.72 737.76 585.92 740.16 588.8 742.56 589.6 746.08 588.48 749.92 585.6 759.52 580 767.2 573.28 774.24 564.32 784.16 554.56 793.44 543.68 801.6ZM574.88 745.76C568.16 751.52 563.68 759.2 559.2 766.56 552.64 776.8 546.72 787.2 543.2 798.72 553.44 792 562.4 783.84 570.56 774.56 576.32 768 581.92 761.12 585.12 752.8 586.4 749.44 588.16 744.8 584.16 742.24 580.32 739.68 577.6 743.68 574.88 745.76ZM529.44 837.6C529.12 836.8 529.12 835.36 527.52 835.36 526.24 835.52 526.24 836.8 525.92 837.76 522.08 847.52 518.24 857.28 515.68 867.68 514.24 873.76 511.52 880 512.32 886.56 521.6 876.8 526.88 864.8 530.24 851.84 531.84 847.04 531.84 842.24 529.44 837.6H529.6ZM511.84 886.88C511.68 886.72 511.52 886.88 511.84 887.04V886.88ZM580.32 831.84C572.96 832.32 570.4 829.92 570.08 822.56 569.76 815.84 572.48 809.92 574.88 804.16 577.6 797.76 580.32 791.68 583.2 785.6 583.84 784 585.76 781.28 584.8 780.8 584.64 780.16 580.16 780.8 578.72 780.8 574.88 781.28 567.84 781.6 565.44 781.6 564.8 781.6 563.52 781.6 563.68 780.32 564 779.2 565.12 779.36 565.6 779.36 568.64 779.2 575.68 778.88 580.8 778.56 587.84 778.08 587.04 777.6 590.24 770.24 591.84 766.24 594.24 762.4 596.32 758.4 596.8 757.44 597.44 756.16 598.56 756.8 599.84 757.44 598.88 758.56 598.4 759.52 596.32 764 594.08 768.32 592 772.8 589.76 777.92 589.44 777.92 592.16 777.76 595.52 777.76 597.44 777.6 598.72 777.6 600.64 777.6 603.04 776.96 605.28 776.96 608.16 776.96 609.12 776.16 609.28 778.08 609.28 779.2 607.52 778.88 604.64 779.2 601.76 779.36 596.8 780 592 780.16 588.8 780.16 588.48 780.8 587.52 782.88 582.72 794.24 576.8 804.64 573.28 816.32 572.16 820.64 571.04 825.12 574.88 828.32 578.88 831.52 583.2 829.44 587.04 826.72 593.76 821.92 599.84 814.88 605.28 808.8 606.08 807.84 607.04 806.08 608.16 806.88 609.6 808.16 607.68 809.12 606.72 810.88 600.48 817.76 594.88 824 587.52 829.12 585.28 830.56 583.2 831.68 580.32 831.84Z" fill="#575ca9"/>
</g>
</svg>
